PathFileType	4	(X/Y/Z)	6_2_82_p0_0-861_filt_butterworth.trc
DataRate	CameraRate	NumFrames	NumMarkers	Units	OrigDataRate	OrigDataStartFrame	OrigNumFrames
59.0	59.0	7	27	m	59.0	215	861
Frame#	Time	RHip			RKnee			RAnkle			RBigToe			RSmallToe			RHeel			LHip			LKnee			LAnkle			LBigToe			LSmallToe			LHeel			Neck			Head			Nose			RShoulder			RElbow			RWrist			RThumb			RIndex			RPinky			LShoulder			LElbow			LWrist			LThumb			LIndex			LPinky			
		X1	Y1	Z1	X2	Y2	Z2	X3	Y3	Z3	X4	Y4	Z4	X5	Y5	Z5	X6	Y6	Z6	X7	Y7	Z7	X8	Y8	Z8	X9	Y9	Z9	X10	Y10	Z10	X11	Y11	Z11	X12	Y12	Z12	X13	Y13	Z13	X14	Y14	Z14	X15	Y15	Z15	X16	Y16	Z16	X17	Y17	Z17	X18	Y18	Z18	X19	Y19	Z19	X20	Y20	Z20	X21	Y21	Z21	X22	Y22	Z22	X23	Y23	Z23	X24	Y24	Z24	X25	Y25	Z25	X26	Y26	Z26	X27	Y27	Z27	
215	3.6440677966101696	0.21847600495997374	0.4348557554390387	0.66688279433216	0.23979322874653852	0.46830740334396886	1.0742925017904987	0.26418699670342044	0.5763010310423671	1.5095114397337663	0.2650390666499975	0.32788411016305397	1.483392513753798	0.31729744159160944	0.3851361607904481	1.5065455341236649	0.26055298386635056	0.6059232726006345	1.5850988642545678	0.019364714314005396	0.43365371133093167	0.6850066568797496	0.05859519185095191	0.46047410191028715	1.0942734218337515	0.1150392626395527	0.5743278234528065	1.5333289691510714	0.12112305054616479	0.3551390021938559	1.5081201889451816	0.067961910342875	0.3887536689662837	1.510428716122391	0.12457156555542315	0.6186885722722744	1.5978172406196984	0.07909519840218741	0.42904035024368026	0.14378620561477518	0.08616184196443816	0.22770394860327348	-0.1273539557595317	0.09673548898759335	0.22757827398645217	0.0506919364753865	0.22499348109010592	0.4615565053021645	0.1491818070632013	0.4192077265526038	0.5391632850097237	0.279374280565904	0.6032506007470395	0.45339047260663906	0.3329349344370398	0.6879032950250386	0.3880826083931215	0.3549358050793048	0.7092609769755097	0.41930275398180417	0.36709743128459815	0.6790846380356169	0.48764112056494524	0.382173170715029	-0.09187164630521306	0.42424540996133997	0.16718376343633318	-0.26370679518808093	0.532733503050899	0.30560647291530285	-0.410293798289959	0.3735938709349165	0.33317647292838437	-0.46179618250216936	0.334629139919723	0.38386555865399113	-0.49038770411364324	0.2750261288313516	0.3730087405556085	-0.5061113335203913	0.34202084335868854	0.376689581848376
216	3.6610169491525424	0.21776171057521543	0.42891653871087204	0.6658613905068693	0.2389949017809845	0.46661143000436933	1.0729014389535596	0.26284471974645895	0.5720213467750483	1.5077364338607744	0.26503005882967307	0.32786229885710566	1.4833871713822595	0.317320487576576	0.38503667530068	1.5064203696949865	0.2607083305090299	0.605568873344117	1.5836001998606968	0.018536740699967413	0.43012074099271347	0.68700803360068	0.058723647724119234	0.4599061670607051	1.0919742266598897	0.11436206876216833	0.570433589771168	1.5299837958228701	0.12040268674122583	0.35368520401591275	1.5074393928448866	0.06796445389324153	0.3886708079400497	1.5104757137559672	0.12454111326158254	0.6186088578385504	1.5978000427285928	0.0809800475272255	0.43389043449879794	0.14411403254664534	0.09187956601579639	0.22569627823559363	-0.1278454255985975	0.09764138443335978	0.22761077421881312	0.05155091365801965	0.22718616175494258	0.4651123262210154	0.14912802767571554	0.41511702002402184	0.5493970963880765	0.27154015146860133	0.5951744802221022	0.4633085370999752	0.33801738804488585	0.6705655853475012	0.38449346303290644	0.3820185417717452	0.6895283485983944	0.42240861823998216	0.39902052607627747	0.6757379211144637	0.47984082176777176	0.4058690600306447	-0.0916415386996012	0.4214366773230488	0.1646560347152249	-0.2662902395218806	0.514723679393208	0.29002035410487065	-0.4046862434645316	0.3706199961119342	0.33487104761187375	-0.4441170496631888	0.3280496520319486	0.39741690298265847	-0.4828853887584472	0.2816526493080669	0.3917427102101761	-0.49774532405122657	0.35683598747644735	0.39733405163828317
217	3.6779661016949152	0.21676935465553807	0.426020951336016	0.6645509552022628	0.23929264434384034	0.464724263977	1.0709935296013877	0.2620313454439984	0.5687403875523473	1.5067191232854342	0.26502807625301167	0.3278259460191577	1.483372154200016	0.317351325024988	0.384975318989675	1.506357007159496	0.26096461738230825	0.6051433026972555	1.5816969693467753	0.017580069099569433	0.425358766601245	0.6866635493328634	0.05889823305238531	0.45949865625385805	1.0894154911837672	0.11331278287402202	0.5652091259206244	1.5258283458003792	0.11949618830729972	0.35007469558933907	1.5053485620894416	0.06798624255391264	0.38857640289174583	1.5104902799616702	0.12449917991670048	0.6185400350970853	1.5977876950252172	0.08305335429883225	0.4376750304224454	0.14429680407073064	0.09882721191559614	0.22316599695309697	-0.1283584485082022	0.09946968351729013	0.22943130602907577	0.05339090866720764	0.22952100279909396	0.4679975262548197	0.14907026575998455	0.40954580606869284	0.5549216870167489	0.26299320017724004	0.5892095892296281	0.4698898434706146	0.34049366914417084	0.6621985340742069	0.37009578044832137	0.39477198014831943	0.6768888055596091	0.42388351134887137	0.4159506322866275	0.6716875261014166	0.46941500177121165	0.41899567283243044	-0.09017590250263541	0.41762604429073136	0.1633316285033245	-0.2663424129691569	0.5012996794170358	0.2841530654224264	-0.4013596278827455	0.3712738822352604	0.3357213665438113	-0.43459907478021065	0.32607367350156086	0.4001637497641812	-0.47894672753106304	0.2886914165046061	0.3968606522696159	-0.49353230799495906	0.3593495662537542	0.40601240318899257
218	3.694915254237288	0.215959187710253	0.4265266468132986	0.6634534926497924	0.24059893142252123	0.4609107971845807	1.0686629036704778	0.2618124939470997	0.5674359425981318	1.5064557792174145	0.2650401207408165	0.32781572970805906	1.4833686294308184	0.3173816433194391	0.3849942813923478	1.5063631359009826	0.26120169676979105	0.6048662726972486	1.5803222631766363	0.016961543227594484	0.4217899153549821	0.6836901610265301	0.059019274025464516	0.45921335444454037	1.0876762993750786	0.11247155274377237	0.5612747260277674	1.5231490768646105	0.11886559633824877	0.3453932864618074	1.502547657212223	0.06802725439849563	0.38851255589948086	1.5104975837561314	0.12445778749107722	0.6185245204689006	1.5977833768012115	0.08483048673524238	0.4382124661564326	0.14422918571518203	0.10637588129508634	0.21918138751073513	-0.12858703564645518	0.10246335727803832	0.23333868760785537	0.056487746319150434	0.2311380236087541	0.47194378344021504	0.14930967916525967	0.4049901476698223	0.5569836236538084	0.26019439509854264	0.5891416599609323	0.47034676162904493	0.3396884825410234	0.6664345498644493	0.353205036168909	0.3856725520298634	0.6775932604629132	0.4235572884627885	0.40866421966012034	0.6680368071808013	0.45835722411233876	0.41405402502430116	-0.08719682335544596	0.4148585134800722	0.1634945485405871	-0.2653127164887196	0.49337165779970277	0.28687250700309735	-0.40114271624115616	0.37028792104875774	0.33346210040225294	-0.43301561147847445	0.32649028461779595	0.3880720979093294	-0.48070166054028707	0.2885373324837739	0.3838059220010603	-0.4971045224589995	0.3465496598616517	0.39543370721903537
219	3.711864406779661	0.21562953171651666	0.42782981846564083	0.6626458925922143	0.24189515737114967	0.4559686359926039	1.0668895486688952	0.2618783655983706	0.5674073669390459	1.5065261560689849	0.26506300100679225	0.32785937527226816	1.4833923754334528	0.3174049544044923	0.3850878291566087	1.5064086483760732	0.26134746192296615	0.6047952527493157	1.5798450146046357	0.0168156970274055	0.42046215187309655	0.6802096433038243	0.05907324577016441	0.45906442172189466	1.087063074192772	0.11212440921578061	0.5597739171680935	1.522357124250816	0.11868616216917349	0.341831205467146	1.500439189676901	0.06806014951019887	0.38848894568210995	1.5105213555580117	0.12444516169224816	0.6186031203167136	1.5978062349475193	0.08660243298184536	0.43528224319406816	0.14409194932175262	0.11402137774384459	0.21269551675926968	-0.1285223194688204	0.10637167895952823	0.2380532125511758	0.06013210182402051	0.23189925815567855	0.47747421985605826	0.15005653427944574	0.403155717468142	0.5627525358720898	0.26697067617484027	0.5952719047948757	0.46756643371305007	0.33771890116141007	0.6792367505205721	0.3519042892404314	0.3617977663515061	0.6912732355618374	0.42256592585153074	0.3828430225838541	0.6670342075210308	0.45438152374397645	0.39565913271261044	-0.08300411763633664	0.41426249108923824	0.1645205349493609	-0.26418413601294866	0.4879870374835379	0.2928865814126417	-0.4032092887797909	0.36543516284005356	0.3270362055473618	-0.4335902070210764	0.3192101646694872	0.3646602849310507	-0.48540277364948486	0.2802254137515111	0.3583632557470541	-0.505951791944489	0.3252525979241473	0.3724395998884194
220	3.7288135593220337	0.21558314524438532	0.4285035513032789	0.6622512988652526	0.2425091983551104	0.45224730643855676	1.066183991370245	0.2619639023402313	0.5676925404346403	1.5066398528381484	0.26508239925478805	0.32794071217685	1.4834349440844707	0.3174258057318544	0.3852208603383299	1.5064646390426177	0.26141832048117647	0.6048617146884758	1.5799357580280877	0.01691258200461775	0.4205452350025495	0.6781862757985138	0.05918146444248189	0.45920792878419014	1.087604423107986	0.11211629647048872	0.5598041556067572	1.5225066784461414	0.11875369976228779	0.34020300694516276	1.499517957230597	0.06806048067461457	0.388490334605972	1.5105553849152722	0.12449625721376706	0.6187991217515755	1.597921568913301	0.08876826368826311	0.43085256350944084	0.14425092884644078	0.12143812228413893	0.20421873648408972	-0.1283603936622833	0.11075351617034924	0.2406895921207881	0.06276370497206027	0.23220758372441802	0.48267809206978096	0.15151220907277682	0.4038194986519436	0.5739946806952243	0.2807384694868296	0.6046087876498811	0.4674543986340659	0.3372180807537272	0.6938392770632075	0.3741618851440058	0.3391141856398111	0.7120221441077598	0.42511899682054644	0.35467933076298797	0.6717759824517109	0.4674024920204272	0.3771511459241226	-0.07817904903327962	0.415258665210704	0.1662176161153228	-0.26340666307624255	0.48361060489724317	0.2965892708672496	-0.4057684565468084	0.35724571161616653	0.3179153041815969	-0.43445951624327583	0.30420346070713855	0.3434969658693941	-0.4893959614346211	0.2696153118022948	0.33420134261603907	-0.5136409741552742	0.305866673836878	0.35105872731768983
221	3.745762711864407	0.2155143018006862	0.42863573424513124	0.662212884791651	0.24255937826127036	0.45079561579515887	1.0661718278386163	0.2619956481421504	0.5678792462015444	1.506716364271882	0.2650761845636005	0.32798505031731345	1.4834568576594052	0.317462051972644	0.38537597065819346	1.5065367426994638	0.26146356999414355	0.6050118668953267	1.5802037882725504	0.017006893193636873	0.42094531920348394	0.6777478175666983	0.05946355200448744	0.45974600762983303	1.0892357836272584	0.11220210552540558	0.5601841830001072	1.5227641987468734	0.11881045486297018	0.3397953063528443	1.4993250438136887	0.06803756583588955	0.3884985092536975	1.5105776294053233	0.12460689276517209	0.6190681942427294	1.5981499419928515	0.09111331551166615	0.4276230011604301	0.144802568636224	0.12822628782350654	0.1950933322960261	-0.1280663779400057	0.11538872538987316	0.23925799183106944	0.06389732169188668	0.23268592798170626	0.4851668412484389	0.1535816585550257	0.40563510680312265	0.5819241030016902	0.29288418563347696	0.6122428468973786	0.47061736379616925	0.3381559539415941	0.7021777322277023	0.40418136410587413	0.3308455474832047	0.729269629611258	0.43283960652377695	0.3404765185335854	0.6814067649267385	0.49092649045765335	0.36885965689013217	-0.07399999067005406	0.416672840542515	0.16838734854792287	-0.263342599934762	0.48084568269653905	0.2950331712687378	-0.40744367219534683	0.3483232012153372	0.3100221953689384	-0.4370942603721345	0.29515433315093725	0.3380046693024509	-0.4914752107168768	0.2631192298681133	0.32322561167505376	-0.5157667692142357	0.29380774436214285	0.33984944684571644
